<?xml version="1.0" standalone="no"?>
<!DOCTYPE svg PUBLIC "-//W3C//DTD SVG 20010904//EN"
 "http://www.w3.org/TR/2001/REC-SVG-20010904/DTD/svg10.dtd">
<svg version="1.0" xmlns="http://www.w3.org/2000/svg"
 width="206.000000pt" height="233.000000pt" viewBox="0 0 206.000000 233.000000"
 preserveAspectRatio="xMidYMid meet">

<g transform="translate(0.000000,233.000000) scale(0.100000,-0.100000)"
fill="currentColor" stroke="none">
<path d="M770 2270 l0 -60 -65 0 -65 0 0 -65 0 -65 -130 0 -130 0 0 -65 0 -65
-65 0 -65 0 0 -65 0 -65 -65 0 -65 0 0 -325 0 -325 -60 0 -60 0 0 -325 0 -325
60 0 60 0 0 -130 0 -130 65 0 65 0 0 -65 0 -65 130 0 130 0 0 -65 0 -65 520 0
520 0 0 65 0 65 130 0 130 0 0 65 0 65 65 0 65 0 0 130 0 130 60 0 60 0 0 325
0 325 -60 0 -60 0 0 325 0 325 -65 0 -65 0 0 65 0 65 -65 0 -65 0 0 65 0 65
-130 0 -130 0 0 65 0 65 -65 0 -65 0 0 60 0 60 -260 0 -260 0 0 -60z m520
-125 l0 -65 -260 0 -260 0 0 65 0 65 260 0 260 0 0 -65z m-650 -390 l0 -195
65 0 65 0 0 195 0 195 260 0 260 0 0 -195 0 -195 65 0 65 0 0 195 0 195 130 0
130 0 0 -65 0 -65 65 0 65 0 0 -260 0 -260 -780 0 -780 0 0 260 0 260 65 0 65
0 0 65 0 65 130 0 130 0 0 -195z m1170 -845 l0 -260 -65 0 -65 0 0 -195 0
-195 -65 0 -65 0 0 -65 0 -65 -520 0 -520 0 0 65 0 65 -65 0 -65 0 0 195 0
195 -65 0 -65 0 0 260 0 260 780 0 780 0 0 -260z"/>
<path d="M900 1755 l0 -65 130 0 130 0 0 65 0 65 -130 0 -130 0 0 -65z"/>
<path d="M510 780 l0 -260 65 0 65 0 0 -65 0 -65 390 0 390 0 0 65 0 65 65 0
65 0 0 260 0 260 -520 0 -520 0 0 -260z m650 65 l0 -65 65 0 65 0 0 65 0 65
65 0 65 0 0 -195 0 -195 -390 0 -390 0 0 195 0 195 260 0 260 0 0 -65z"/>
</g>
</svg>
