<?xml version="1.0" standalone="no"?>
<!DOCTYPE svg PUBLIC "-//W3C//DTD SVG 20010904//EN"
 "http://www.w3.org/TR/2001/REC-SVG-20010904/DTD/svg10.dtd">
<svg version="1.0" xmlns="http://www.w3.org/2000/svg"
 width="296.000000pt" height="310.000000pt" viewBox="0 0 296.000000 310.000000"
 preserveAspectRatio="xMidYMid meet">

<g transform="translate(0.000000,310.000000) scale(0.100000,-0.100000)"
fill="currentColor" stroke="none">
<path d="M1150 3040 l0 -60 -65 0 -65 0 0 -65 0 -65 -130 0 -130 0 0 -65 0
-65 -65 0 -65 0 0 -65 0 -65 -65 0 -65 0 0 -65 0 -65 -65 0 -65 0 0 -65 0 -65
-65 0 -65 0 0 -455 0 -455 -65 0 -65 0 0 -65 0 -65 -55 0 -55 0 0 -390 0 -390
55 0 55 0 0 -65 0 -65 65 0 65 0 0 -65 0 -65 65 0 65 0 0 -65 0 -65 65 0 65 0
0 -60 0 -60 975 0 975 0 0 60 0 60 65 0 65 0 0 65 0 65 65 0 65 0 0 65 0 65
65 0 65 0 0 65 0 65 60 0 60 0 0 390 0 390 -60 0 -60 0 0 65 0 65 -65 0 -65 0
0 455 0 455 -65 0 -65 0 0 65 0 65 -65 0 -65 0 0 65 0 65 -65 0 -65 0 0 65 0
65 -65 0 -65 0 0 65 0 65 -130 0 -130 0 0 65 0 65 -65 0 -65 0 0 60 0 60 -325
0 -325 0 0 -60z m650 -125 l0 -65 -325 0 -325 0 0 65 0 65 325 0 325 0 0 -65z
m-910 -585 l0 -390 130 0 130 0 0 390 0 390 325 0 325 0 0 -390 0 -390 130 0
130 0 0 390 0 390 65 0 65 0 0 -65 0 -65 65 0 65 0 0 -65 0 -65 65 0 65 0 0
-65 0 -65 65 0 65 0 0 -455 0 -455 -1105 0 -1105 0 0 455 0 455 65 0 65 0 0
65 0 65 65 0 65 0 0 65 0 65 65 0 65 0 0 65 0 65 65 0 65 0 0 -390z m1690
-1560 l0 -520 -65 0 -65 0 0 -65 0 -65 -975 0 -975 0 0 65 0 65 -65 0 -65 0 0
520 0 520 1105 0 1105 0 0 -520z"/>
<path d="M1280 2330 l0 -130 195 0 195 0 0 130 0 130 -195 0 -195 0 0 -130z"/>
<path d="M630 900 l0 -260 65 0 65 0 0 -65 0 -65 65 0 65 0 0 -65 0 -65 585 0
585 0 0 65 0 65 65 0 65 0 0 65 0 65 65 0 65 0 0 260 0 260 -845 0 -845 0 0
-260z m260 65 l0 -65 65 0 65 0 0 65 0 65 585 0 585 0 0 -195 0 -195 -65 0
-65 0 0 -65 0 -65 -585 0 -585 0 0 65 0 65 -65 0 -65 0 0 195 0 195 65 0 65 0
0 -65z"/>
</g>
</svg>
