<?xml version="1.0" standalone="no"?>
<!DOCTYPE svg PUBLIC "-//W3C//DTD SVG 20010904//EN"
 "http://www.w3.org/TR/2001/REC-SVG-20010904/DTD/svg10.dtd">
<svg version="1.0" xmlns="http://www.w3.org/2000/svg"
 width="246.000000pt" height="207.000000pt" viewBox="0 0 246.000000 207.000000"
 preserveAspectRatio="xMidYMid meet">

<g transform="translate(0.000000,207.000000) scale(0.100000,-0.100000)"
fill="currentColor" stroke="none">
<path d="M770 1745 l0 -325 -65 0 -65 0 0 -65 0 -65 -65 0 -65 0 0 -65 0 -65
-65 0 -65 0 0 -65 0 -65 -65 0 -65 0 0 -65 0 -65 -65 0 -65 0 0 -65 0 -65 -60
0 -60 0 0 -385 0 -385 125 0 125 0 0 125 0 125 585 0 585 0 0 -125 0 -125 130
0 130 0 0 190 0 190 65 0 65 0 0 65 0 65 65 0 65 0 0 65 0 65 65 0 65 0 0 65
0 65 65 0 65 0 0 -65 0 -65 130 0 130 0 0 715 0 715 -130 0 -130 0 0 -65 0
-65 -585 0 -585 0 0 65 0 65 -130 0 -130 0 0 -325z m1300 0 l0 -65 65 0 65 0
0 -130 0 -130 -130 0 -130 0 0 130 0 130 -390 0 -390 0 0 -130 0 -130 -130 0
-130 0 0 130 0 130 65 0 65 0 0 65 0 65 520 0 520 0 0 -65z m0 -520 l0 -65 65
0 65 0 0 -130 0 -130 -65 0 -65 0 0 -65 0 -65 -65 0 -65 0 0 -65 0 -65 -65 0
-65 0 0 -65 0 -65 -65 0 -65 0 0 130 0 130 -130 0 -130 0 0 -65 0 -65 -585 0
-585 0 0 130 0 130 65 0 65 0 0 65 0 65 65 0 65 0 0 65 0 65 65 0 65 0 0 65 0
65 715 0 715 0 0 -65z m-650 -780 l0 -65 -585 0 -585 0 0 65 0 65 585 0 585 0
0 -65z"/>
<path d="M1940 1095 l0 -65 -65 0 -65 0 0 -65 0 -65 -65 0 -65 0 0 -65 0 -65
65 0 65 0 0 65 0 65 65 0 65 0 0 65 0 65 65 0 65 0 0 65 0 65 -65 0 -65 0 0
-65z"/>
</g>
</svg>
