<?xml version="1.0" standalone="no"?>
<!DOCTYPE svg PUBLIC "-//W3C//DTD SVG 20010904//EN"
 "http://www.w3.org/TR/2001/REC-SVG-20010904/DTD/svg10.dtd">
<svg version="1.0" xmlns="http://www.w3.org/2000/svg"
 width="273.000000pt" height="271.000000pt" viewBox="0 0 273.000000 271.000000"
 preserveAspectRatio="xMidYMid meet">

<g transform="translate(0.000000,271.000000) scale(0.100000,-0.100000)"
fill="currentColor" stroke="none">
<path d="M0 1675 l0 -1035 65 0 65 0 0 -65 0 -65 130 0 130 0 0 -65 0 -65 130
0 130 0 0 -65 0 -65 130 0 130 0 0 -65 0 -65 130 0 130 0 0 -60 0 -60 195 0
195 0 0 60 0 60 130 0 130 0 0 65 0 65 130 0 130 0 0 65 0 65 130 0 130 0 0
65 0 65 130 0 130 0 0 65 0 65 65 0 65 0 0 1035 0 1035 -195 0 -195 0 0 -60 0
-60 -130 0 -130 0 0 -65 0 -65 -130 0 -130 0 0 -65 0 -65 -130 0 -130 0 0 -65
0 -65 -195 0 -195 0 0 65 0 65 -130 0 -130 0 0 65 0 65 -130 0 -130 0 0 65 0
65 -130 0 -130 0 0 60 0 60 -195 0 -195 0 0 -1035z m390 850 l0 -65 130 0 130
0 0 -65 0 -65 130 0 130 0 0 -65 0 -65 130 0 130 0 0 -65 0 -65 65 0 65 0 0
-910 0 -910 -65 0 -65 0 0 65 0 65 -130 0 -130 0 0 65 0 65 -130 0 -130 0 0
65 0 65 -130 0 -130 0 0 65 0 65 -130 0 -130 0 0 910 0 910 130 0 130 0 0 -65z
m2210 -845 l0 -910 -130 0 -130 0 0 -65 0 -65 -130 0 -130 0 0 -65 0 -65 -130
0 -130 0 0 -65 0 -65 -130 0 -130 0 0 -65 0 -65 -65 0 -65 0 0 910 0 910 65 0
65 0 0 65 0 65 130 0 130 0 0 65 0 65 130 0 130 0 0 65 0 65 130 0 130 0 0 65
0 65 130 0 130 0 0 -910z"/>
<path d="M390 2005 l0 -65 130 0 130 0 0 -65 0 -65 130 0 130 0 0 -65 0 -65
65 0 65 0 0 65 0 65 -65 0 -65 0 0 65 0 65 -130 0 -130 0 0 65 0 65 -130 0
-130 0 0 -65z"/>
<path d="M390 1615 l0 -65 65 0 65 0 0 65 0 65 -65 0 -65 0 0 -65z"/>
<path d="M650 1485 l0 -65 130 0 130 0 0 -65 0 -65 130 0 130 0 0 65 0 65
-130 0 -130 0 0 65 0 65 -130 0 -130 0 0 -65z"/>
<path d="M390 1095 l0 -65 130 0 130 0 0 -65 0 -65 130 0 130 0 0 -65 0 -65
130 0 130 0 0 65 0 65 -130 0 -130 0 0 65 0 65 -130 0 -130 0 0 65 0 65 -130
0 -130 0 0 -65z"/>
<path d="M2210 2265 l0 -65 -65 0 -65 0 0 -65 0 -65 -65 0 -65 0 0 -65 0 -65
65 0 65 0 0 65 0 65 65 0 65 0 0 65 0 65 130 0 130 0 0 65 0 65 -130 0 -130 0
0 -65z"/>
<path d="M2210 1875 l0 -65 -130 0 -130 0 0 -65 0 -65 -130 0 -130 0 0 -65 0
-65 130 0 130 0 0 65 0 65 130 0 130 0 0 65 0 65 65 0 65 0 0 65 0 65 -65 0
-65 0 0 -65z"/>
<path d="M2210 1485 l0 -65 -130 0 -130 0 0 -65 0 -65 130 0 130 0 0 65 0 65
130 0 130 0 0 65 0 65 -130 0 -130 0 0 -65z"/>
<path d="M2210 1095 l0 -65 -130 0 -130 0 0 -65 0 -65 -130 0 -130 0 0 -65 0
-65 130 0 130 0 0 65 0 65 130 0 130 0 0 65 0 65 65 0 65 0 0 65 0 65 -65 0
-65 0 0 -65z"/>
</g>
</svg>
