<svg width="30" height="32" viewBox="0 0 30 32" fill="none" xmlns="http://www.w3.org/2000/svg">
<path d="M21.7051 9.58301V11.103H20.1751V12.633H18.6551V14.153H17.1351V17.203H18.6551V18.723H20.1751V20.253H21.7051V21.773H23.2251V17.203H29.3251V14.153H23.2251V9.58301H21.7051Z" fill="currentColor"/>
<path d="M21.7052 24.823H20.1752V27.873H21.7052V24.823Z" fill="currentColor"/>
<path d="M21.7052 1.96298H20.1752V6.53298H21.7052V1.96298Z" fill="currentColor"/>
<path d="M14.0851 30.913V29.393H20.1751V27.873H14.0851V8.06299H12.5651V30.913H14.0851Z" fill="currentColor"/>
<path d="M12.5651 30.913H7.98511V32.443H12.5651V30.913Z" fill="currentColor"/>
<path d="M11.0351 17.203H9.51514V20.253H11.0351V17.203Z" fill="currentColor"/>
<path d="M12.5651 6.53299H9.51514V8.06299H12.5651V6.53299Z" fill="currentColor"/>
<path d="M7.98507 29.393H4.94507V30.913H7.98507V29.393Z" fill="currentColor"/>
<path d="M9.51509 5.013H6.46509V6.533H9.51509V5.013Z" fill="currentColor"/>
<path d="M4.94514 27.873H1.89514V29.393H4.94514V27.873Z" fill="currentColor"/>
<path d="M6.46516 3.49298H3.41516V5.01298H6.46516V3.49298Z" fill="currentColor"/>
<path d="M1.89512 0.442993V1.96299H0.375122V27.873H1.89512V3.49299H3.41512V1.96299H20.1751V0.442993H1.89512Z" fill="currentColor"/>
</svg>
