<svg width="33" height="32" viewBox="0 0 33 32" fill="none" xmlns="http://www.w3.org/2000/svg">
<path d="M32.8501 3.04999H31.3201V30.48H32.8501V3.04999Z" fill="currentColor"/>
<path d="M31.32 1.51999H29.8V3.04999H31.32V1.51999Z" fill="currentColor"/>
<path d="M28.2801 16.76H26.7501V30.48H6.94012V16.76H5.42012V30.48H2.37012V32H31.3201V30.48H28.2801V16.76Z" fill="currentColor"/>
<path d="M19.1301 9.13999H25.2301V3.04999H19.1301V9.13999ZM20.6601 4.56999H22.1801V7.61999H20.6601V4.56999Z" fill="currentColor"/>
<path d="M23.7001 25.9H9.99011V27.43H23.7001V25.9Z" fill="currentColor"/>
<path d="M23.7001 21.33H9.99011V22.86H23.7001V21.33Z" fill="currentColor"/>
<path d="M26.7501 15.24H6.94006V16.76H26.7501V15.24Z" fill="currentColor"/>
<path d="M5.42015 9.14H6.94015V1.52H9.99015V9.14H6.94015V10.67H9.99015V12.19H28.2801V1.52H29.8001V0H3.90015V1.52H5.42015V9.14ZM11.5101 1.52H26.7501V10.67H11.5101V1.52Z" fill="currentColor"/>
<path d="M3.90012 1.51999H2.37012V3.04999H3.90012V1.51999Z" fill="currentColor"/>
<path d="M2.3701 3.04999H0.850098V30.48H2.3701V3.04999Z" fill="currentColor"/>
</svg>
