<svg width="32" height="32" viewBox="0 0 32 32" fill="none" xmlns="http://www.w3.org/2000/svg">
<path d="M29.5652 14.48V17.53H28.0452V19.05H31.0852V12.95H28.0452V14.48H29.5652Z" fill="currentColor"/>
<path d="M28.0451 23.62H26.5151V25.14H28.0451V23.62Z" fill="currentColor"/>
<path d="M28.0451 19.05H26.5151V22.1H28.0451V19.05Z" fill="currentColor"/>
<path d="M28.0451 9.90999H26.5151V12.95H28.0451V9.90999Z" fill="currentColor"/>
<path d="M28.0451 6.86H26.5151V8.38H28.0451V6.86Z" fill="currentColor"/>
<path d="M26.5151 25.14H24.9951V26.67H26.5151V25.14Z" fill="currentColor"/>
<path d="M26.5151 22.1H24.9951V23.62H26.5151V22.1Z" fill="currentColor"/>
<path d="M26.5151 8.37999H24.9951V9.90999H26.5151V8.37999Z" fill="currentColor"/>
<path d="M26.5151 5.34H24.9951V6.86H26.5151V5.34Z" fill="currentColor"/>
<path d="M24.9951 26.67H23.4651V28.19H24.9951V26.67Z" fill="currentColor"/>
<path d="M24.9951 12.95H23.4651V19.05H24.9951V12.95Z" fill="currentColor"/>
<path d="M24.9951 3.81H23.4651V5.34H24.9951V3.81Z" fill="currentColor"/>
<path d="M23.4651 25.14H21.9451V26.67H23.4651V25.14Z" fill="currentColor"/>
<path d="M23.4651 19.05H21.9451V22.1H23.4651V19.05Z" fill="currentColor"/>
<path d="M23.4651 9.90999H21.9451V12.95H23.4651V9.90999Z" fill="currentColor"/>
<path d="M23.4651 5.34H21.9451V6.86H23.4651V5.34Z" fill="currentColor"/>
<path d="M21.9451 26.67H18.8951V28.19H21.9451V26.67Z" fill="currentColor"/>
<path d="M21.9451 22.1H18.8951V23.62H21.9451V22.1Z" fill="currentColor"/>
<path d="M21.9451 8.37999H18.8951V9.90999H21.9451V8.37999Z" fill="currentColor"/>
<path d="M21.9451 3.81H18.8951V5.34H21.9451V3.81Z" fill="currentColor"/>
<path d="M17.3751 29.72H14.3251V28.19H12.8051V31.24H18.8951V28.19H17.3751V29.72Z" fill="currentColor"/>
<path d="M18.8951 23.62H12.8051V25.14H18.8951V23.62Z" fill="currentColor"/>
<path d="M14.3251 19.05H17.3751V17.53H18.8951V14.48H17.3751V12.95H14.3251V14.48H12.8051V17.53H14.3251V19.05Z" fill="currentColor"/>
<path d="M18.8951 6.86H12.8051V8.38H18.8951V6.86Z" fill="currentColor"/>
<path d="M14.3251 2.28999H17.3751V3.80999H18.8951V0.759995H12.8051V3.80999H14.3251V2.28999Z" fill="currentColor"/>
<path d="M12.8051 26.67H9.75513V28.19H12.8051V26.67Z" fill="currentColor"/>
<path d="M12.8051 22.1H9.75513V23.62H12.8051V22.1Z" fill="currentColor"/>
<path d="M12.8051 8.37999H9.75513V9.90999H12.8051V8.37999Z" fill="currentColor"/>
<path d="M12.8051 3.81H9.75513V5.34H12.8051V3.81Z" fill="currentColor"/>
<path d="M9.75511 25.14H8.23511V26.67H9.75511V25.14Z" fill="currentColor"/>
<path d="M9.75511 19.05H8.23511V22.1H9.75511V19.05Z" fill="currentColor"/>
<path d="M9.75511 9.90999H8.23511V12.95H9.75511V9.90999Z" fill="currentColor"/>
<path d="M9.75511 5.34H8.23511V6.86H9.75511V5.34Z" fill="currentColor"/>
<path d="M8.23508 26.67H6.70508V28.19H8.23508V26.67Z" fill="currentColor"/>
<path d="M8.23508 12.95H6.70508V19.05H8.23508V12.95Z" fill="currentColor"/>
<path d="M8.23508 3.81H6.70508V5.34H8.23508V3.81Z" fill="currentColor"/>
<path d="M6.70506 25.14H5.18506V26.67H6.70506V25.14Z" fill="currentColor"/>
<path d="M6.70506 22.1H5.18506V23.62H6.70506V22.1Z" fill="currentColor"/>
<path d="M6.70506 8.37999H5.18506V9.90999H6.70506V8.37999Z" fill="currentColor"/>
<path d="M6.70506 5.34H5.18506V6.86H6.70506V5.34Z" fill="currentColor"/>
<path d="M5.18516 23.62H3.66516V25.14H5.18516V23.62Z" fill="currentColor"/>
<path d="M5.18516 19.05H3.66516V22.1H5.18516V19.05Z" fill="currentColor"/>
<path d="M5.18516 9.90999H3.66516V12.95H5.18516V9.90999Z" fill="currentColor"/>
<path d="M5.18516 6.86H3.66516V8.38H5.18516V6.86Z" fill="currentColor"/>
<path d="M3.66511 17.53H2.13511V14.48H3.66511V12.95H0.615112V19.05H3.66511V17.53Z" fill="currentColor"/>
</svg>
